<svg width="126" height="60" viewBox="0 0 126 60" fill="none" xmlns="http://www.w3.org/2000/svg">
<g clip-path="url(#clip0_79_638)">
<path d="M0.0287236 41.3965C0.35485 38.6759 3.00223 35.4444 5.09648 33.7807C11.3217 28.844 19.0272 28.2725 26.4162 30.7599C26.9693 30.9452 27.9253 31.6253 28.4465 31.3922C33.4791 26.0596 38.1376 20.3821 43.1062 14.992C46.3963 11.4252 55.3104 1.35388 59.5788 0.233073C61.785 -0.344894 64.5123 0.0861863 65.6154 2.28949C68.234 7.52312 61.7562 14.5641 59.6907 19.124L48.7079 39.9755C58.1144 39.8031 61.753 29.1985 66.8335 22.8824C67.182 22.4481 69.142 20.0915 69.3946 19.9446C70.8558 19.1048 72.8605 21.2921 73.145 22.6014C73.3912 23.7317 73.2122 24.0798 72.6942 25.0058C70.6383 28.6876 62.9999 37.389 63.6426 41.4699C63.8632 42.8781 65.5066 42.2267 66.4179 41.7796C68.4098 40.7993 74.149 34.9143 75.3576 32.976C76.1825 31.654 76.8188 29.6423 77.6373 28.1607C79.4661 24.8462 82.51 20.7653 85.605 18.5652C88.4346 16.5567 90.0333 16.0106 92.9301 18.281C97.6205 21.9563 96.9683 26.3406 93.7997 30.8142C92.4121 32.7748 91.114 34.2693 89.6752 31.2741C88.2364 28.2788 90.3338 26.0564 91.4721 23.5306C92.4984 21.2474 90.7015 22.3714 89.6624 23.141C86.0015 25.8648 80.2079 33.7009 79.8019 38.2895C79.4885 41.818 80.8762 42.9388 84.3261 42.6258C89.0101 42.1979 96.6613 36.2235 98.8995 32.1777C100.939 28.4864 101.847 25.8137 104.757 22.4257C108.84 17.6743 113.297 14.0979 118.713 19.6732C121.517 22.5598 120.2 25.9574 118.56 29.1027C116.478 33.0974 110.883 39.3752 105.85 37.1112L103.785 35.6264C102.33 39.0942 102.688 43.2389 107.427 42.8047C111.423 42.4374 117.872 37.5487 120.481 34.563C121.031 33.934 123.464 30.3576 123.81 30.2522C124.99 29.8914 125.968 31.6349 126.003 32.6216C126.102 35.5881 122.4 39.4582 120.213 41.2017C113.649 46.4481 103.117 48.9388 98.1865 40.3204C96.4087 41.5785 94.727 42.9675 92.7734 43.9606C86.7113 47.042 78.7627 47.307 75.0922 40.6812C72.4672 42.9803 69.3338 46.2278 65.5003 45.9915C62.3477 45.7967 60.7714 42.8653 59.2751 40.4992C56.3207 42.7536 53.1266 44.4683 49.3282 44.7493C48.1836 44.8355 47.0038 44.612 45.8687 44.8419L43.1158 49.7147C42.4284 50.1969 41.6866 49.753 41.0695 49.4497C38.6204 48.249 37.9777 44.976 39.6339 42.8621L39.5732 42.6226L31.2122 37.7051C27.7431 40.9718 24.6769 44.6599 20.7729 47.4475C16.4086 50.5673 11.5135 52.6461 6.16118 50.6024C3.13972 49.4497 0.847238 46.9973 0.0351182 43.8648C0.102262 43.0729 -0.0576041 42.1564 0.0351182 41.3837L0.0287236 41.3965ZM41.936 38.5386L58.2999 8.43637C49.9485 16.7259 41.7602 25.223 34.0514 34.132L33.9843 34.6429C35.0426 35.2176 41.2134 38.9952 41.936 38.5417V38.5386ZM115.33 21.7264C114.291 21.5444 113.486 22.3587 112.76 22.9718C110.857 24.5811 105.355 30.8877 105.057 33.2027C104.824 35.0133 106.659 33.7775 107.42 33.2411C109.633 31.6764 112.667 27.9978 114 25.6285C114.317 25.0665 115.788 22.1799 115.33 21.7264ZM25.7895 34.132C20.4372 31.868 14.292 33.3848 9.97559 37.0505C7.91332 38.8036 4.40905 43.5199 6.10044 46.2373C7.5712 48.6035 11.5998 46.2309 13.3392 45.19C17.9881 42.4023 22.2373 38.165 25.7895 34.132ZM93.3009 60C93.9788 59.505 94.938 59.0612 94.8996 58.0521C93.9244 57.8318 93.9436 58.9622 93.1347 59.2113C90.4042 60.0543 89.9182 56.3693 91.5712 55.7051C92.1531 55.472 93.1251 55.4561 93.6527 55.8392C94.2442 56.2703 93.9372 57.0559 94.8996 56.81C94.9763 55.3571 93.5887 54.8174 92.3226 54.8494C89.3011 54.926 89.0165 59.1186 91.7023 60H93.3009ZM81.6595 13.3986C87.7824 12.9899 89.1572 3.03669 82.9608 3.51886C76.7644 4.00103 75.4695 13.8137 81.6595 13.3986ZM73.9348 59.8243H74.6446V56.1043C75.6038 56.8866 76.563 58.8983 77.4742 59.5721C77.8451 59.8467 78.0785 59.8786 78.5517 59.8243V55.041H77.8419V58.761L74.9228 55.2038L73.9316 55.0378V59.8212L73.9348 59.8243ZM107.069 55.041C108.45 55.3347 108.591 58.4161 107.698 59.3422C107.596 59.4475 106.938 59.8275 106.893 59.8275H103.606V55.0441C104.613 55.1878 106.141 54.8462 107.072 55.0441L107.069 55.041ZM104.492 59.2911C106.352 59.3326 107.583 59.5018 107.523 57.2506C107.471 55.3379 106.013 55.5519 104.492 55.571V59.2911ZM44.0878 59.8243H44.9767V57.5221H48.174V59.8275H48.8838V55.0441H48.174V56.992H44.9767V55.041H44.0878V59.8243ZM95.9643 55.041V59.8243H100.05V59.2943H96.9427C96.4791 58.9175 96.7253 58.2341 96.6773 57.7009H99.8746V56.992H96.6773L96.7061 55.868L96.9459 55.5742H99.8778V55.0441H95.9707L95.9643 55.041ZM60.7874 55.041V59.8243H64.6945V59.2943H61.4972V57.7009H64.5187V56.992H61.4972V55.5742H64.6945V55.0441H60.7874V55.041ZM114.087 59.8212L113.227 59.7924L112.638 58.4321H110.474C109.917 58.6237 110.007 60.1724 108.936 59.8212L110.909 55.0601L112.05 55.2102L114.087 59.8212ZM111.596 55.9255C111.136 55.8392 111.321 55.9925 111.228 56.1777C111.097 56.43 110.544 57.7041 110.71 57.8733H112.309L111.596 55.9255ZM85.0998 55.0697L87.2612 59.8212C86.0015 60.0958 86.2413 59.0484 85.5443 58.4353H83.3797L82.7914 59.7956L81.9313 59.8243L84.0927 55.0729H85.103L85.0998 55.0697ZM85.3045 57.8733C85.4771 57.6945 84.7897 55.9287 84.4188 55.7466L83.7058 57.8733H85.3045ZM54.9267 59.8243L54.0698 59.7956L53.3952 58.4321C51.9628 58.381 50.8277 58.0074 50.6455 59.8052L49.779 59.8243C50.1659 59.1218 51.4896 55.3826 51.9084 55.1272C52.1898 54.9547 52.6598 54.9707 52.89 55.2166L54.9299 59.8243H54.9267ZM53.149 57.8733L53.0691 57.3369L52.2633 55.7498L51.5503 57.8733H53.149ZM73.0459 59.8212L72.1859 59.7924L71.5975 58.4321H69.433C68.8766 58.6237 68.9661 60.1724 67.8951 59.8212C68.202 59.1123 69.6152 55.373 70.0245 55.124C70.3058 54.9515 70.7758 54.9707 71.0092 55.2102L73.0459 59.8212ZM70.5584 55.9255C70.098 55.8424 70.2834 55.9925 70.1907 56.1777C70.0596 56.43 69.5065 57.7041 69.6728 57.8733H71.2714L70.5584 55.9255ZM54.9299 55.2996C55.6525 56.0723 56.3591 59.1187 56.9666 59.6487C57.232 59.8786 57.5933 59.8882 57.9194 59.7956L59.8985 55.041C59.6587 55.041 59.4062 54.9962 59.1855 55.124C58.9266 55.2772 57.7755 58.3778 57.5869 58.9366C57.2927 59.1666 55.9658 55.1783 55.7836 55.0697C55.6557 54.9931 54.7668 54.8909 54.9299 55.2996ZM116.488 56.9888C115.663 56.2065 115.487 54.6961 114.087 55.041C115.087 56.6727 116.686 57.6562 116.219 59.8243H116.929C116.491 57.72 117.876 56.6248 119.062 55.1272C118.876 54.9739 118.205 54.9803 118.035 55.0793C117.744 55.2453 116.977 57.1101 116.491 56.9888H116.488ZM87.971 55.041V59.8243H88.8599V55.041H87.971Z" fill="#2F2262"/>
</g>
<defs>
<clipPath id="clip0_79_638">
<rect width="126" height="60" fill="white"/>
</clipPath>
</defs>
</svg>
