<svg width="150" height="34" viewBox="0 0 150 34" fill="none" xmlns="http://www.w3.org/2000/svg">
<g clip-path="url(#clip0_79_626)">
<path d="M100.25 11.9895H93.849L93.5235 12.3144V25.0923C93.5235 34.0628 80.5409 36.7851 75.3005 30.5023C71.7896 26.2899 73.9682 18.0211 73.3194 12.7649C73.2934 12.5526 73.2109 12.035 72.9809 11.9809L70.9564 11.9895V7.87462H76.2727C77.2882 7.87462 77.9739 9.03113 78.0976 9.95157C78.7399 14.714 77.3446 21.2546 78.2147 25.8611C79.074 30.4027 86.851 30.9073 88.3808 26.2423C89.6936 22.2378 88.2072 14.2722 88.7432 9.71117C88.8907 8.45937 89.8043 7.88978 91.0173 7.86596C100.296 8.90552 117.002 4.0196 120.743 15.8965C123.232 23.7972 119.35 32.5706 110.525 33.4022C108.633 33.5798 103.655 33.6968 101.886 33.4174C101.357 33.3351 100.246 32.4861 100.246 32.0227V11.9895H100.25ZM105.024 11.9895V28.9906C106.621 30.0518 110.225 29.4952 111.97 28.7762C117.694 26.409 118.076 16.1694 112.905 13.1114C112.378 12.7995 110.397 11.9895 109.906 11.9895H105.024Z" fill="#303030"/>
<path d="M32.9372 7.50647C52.2104 5.59845 52.4903 35.6915 32.6594 33.8614C17.841 32.4948 16.8516 9.09829 32.9372 7.50647ZM32.9307 12.0459C22.9143 13.3215 24.3378 30.1883 34.825 29.5299C45.6985 28.8477 45.3296 10.467 32.9307 12.0459Z" fill="#303030"/>
<path d="M135.357 7.50649C152.278 5.8302 155.316 29.792 140.346 33.4932C121.505 38.1496 117.022 9.32138 135.357 7.50649ZM135.351 12.0459C125.265 13.406 126.869 30.184 137.243 29.5278C148.221 28.8347 147.706 10.3783 135.351 12.0459Z" fill="#303030"/>
<path d="M61.0832 7.87463C67.7232 8.61965 70.1122 16.4835 65.7464 21.1918L63.7956 22.4912C66.3301 24.122 66.022 29.6967 69.6522 29.5321V33.4304H65.4209C63.8672 33.4304 61.2026 26.3376 60.1979 24.9992C59.9288 24.6397 59.1151 23.9011 58.6941 23.9011H55.5478V33.4304H50.7739V11.9895H48.387V7.87463H61.081H61.0832ZM55.5499 19.7862H60.6492C60.7122 19.7862 61.5801 19.2556 61.7342 19.1365C63.4853 17.7591 63.4918 13.8131 61.617 12.5418C61.4564 12.4335 60.519 11.9895 60.4344 11.9895H55.5521V19.7862H55.5499Z" fill="#303030"/>
<path d="M7.16073 18.2702C8.31079 18.1424 9.98597 18.6622 10.8539 17.7331L16.0574 7.87463H21.2652L15.3826 18.9546L13.8853 20.3277C14.6513 20.6027 15.0701 21.0748 15.4911 21.7592C16.806 23.9098 17.7 26.8206 19.0866 28.9993C19.666 29.5862 20.7184 29.5537 21.4822 29.5321V33.4304H16.8169C16.5652 33.4304 15.6169 32.5121 15.4433 32.2024L10.5718 22.6645L7.16073 22.3851V33.4304H2.38691V12.3144C1.81405 11.6972 0.774661 12.087 0 11.9895V7.87463H5.53329C5.97813 7.87463 7.16073 8.95967 7.16073 9.49894V18.2702Z" fill="#303030"/>
<path d="M39.0586 0.944275H29.5109V3.97631H39.0586V0.944275Z" fill="#303030"/>
<path d="M130.349 0.125623C134.16 -0.751503 134.672 4.7235 131.339 5.0137C128.186 5.28659 127.789 0.716871 130.349 0.125623Z" fill="#303030"/>
<path d="M141.631 0.123432C144.059 -0.599926 145.934 1.9968 144.482 4.05209C142.95 6.22217 139.326 4.53938 140.22 1.53117C140.294 1.28427 141.381 0.199233 141.628 0.125598L141.631 0.123432Z" fill="#303030"/>
</g>
<defs>
<clipPath id="clip0_79_626">
<rect width="150" height="34" fill="white"/>
</clipPath>
</defs>
</svg>
