<svg width="354" height="75" viewBox="0 0 354 75" fill="none" xmlns="http://www.w3.org/2000/svg">
<path d="M59.635 0C44.9888 0 32.3084 8.42867 26.1806 20.6992H34.5255C39.9232 12.5787 49.1538 7.22885 59.635 7.22885C76.2799 7.22885 89.7712 20.7231 89.7712 37.365C89.7712 54.0069 76.2799 67.5042 59.635 67.5042C49.1538 67.5042 39.9232 62.1543 34.5255 54.0338H26.1806C32.3084 66.3043 44.9888 74.733 59.635 74.733C80.2713 74.733 97 58.0043 97 37.365C97 16.7257 80.2713 0 59.635 0Z" fill="white"/>
<path d="M84.4632 49.7433H78.8979L70.5799 32.9129L67.902 38.3286L65.4366 43.3163L62.259 49.7433H56.6937L59.8713 43.3163L62.3368 38.3286L66.1547 30.606L67.7973 27.2848L68.6231 25.6152H72.5338L73.3596 27.2848L75.0022 30.606L84.4632 49.7433Z" fill="white"/>
<path d="M60.5715 34.4658C60.5715 35.8511 60.2543 37.1616 59.6858 38.3286C58.2526 41.2817 55.2247 43.3163 51.7209 43.3163H42.622V49.7433H37.6313V38.3286H51.7209C53.8513 38.3286 55.5807 36.5991 55.5807 34.4658C55.5807 32.3324 53.8513 30.606 51.7209 30.606H37.6313V25.6152H51.7209C55.2247 25.6152 58.2526 27.6528 59.6858 30.606C60.2543 31.7729 60.5715 33.0805 60.5715 34.4658Z" fill="white"/>
<path d="M29.4988 37.3652C29.4988 38.7565 29.5916 40.1239 29.7771 41.4643H16.1512L9.02409 33.269H29.7771C29.5916 34.6095 29.4988 35.9769 29.4988 37.3652Z" fill="white"/>
<path d="M33.1971 22.8865C31.8087 25.4178 30.7705 28.1735 30.1571 31.0818H7.12413L0 22.8865H33.1971Z" fill="white"/>
<path d="M33.197 51.8467H25.1753L18.0512 43.6514H30.1571C30.7735 46.5627 31.8087 49.3154 33.197 51.8467Z" fill="white"/>
<path d="M124.317 49.232C122.286 49.232 120.514 48.7649 119.001 47.8307C117.498 46.8965 116.336 45.5815 115.513 43.8857C114.691 42.1798 114.279 40.1743 114.279 37.8693V37.854C114.279 35.549 114.691 33.5486 115.513 31.8528C116.336 30.157 117.498 28.8471 119.001 27.9231C120.504 26.9889 122.276 26.5217 124.317 26.5217C125.84 26.5217 127.226 26.8111 128.475 27.3899C129.724 27.9687 130.765 28.776 131.598 29.8118C132.441 30.8475 132.999 32.061 133.273 33.4521L133.304 33.6044H130.532L130.425 33.2693C130.141 32.3757 129.714 31.6192 129.145 30.9998C128.587 30.3703 127.902 29.8879 127.089 29.5528C126.277 29.2177 125.353 29.0502 124.317 29.0502C122.855 29.0502 121.58 29.4157 120.494 30.1469C119.418 30.8678 118.58 31.8883 117.981 33.2084C117.392 34.5183 117.097 36.0669 117.097 37.854V37.8693C117.097 39.6463 117.392 41.1999 117.981 42.5301C118.58 43.8502 119.423 44.8758 120.509 45.6069C121.596 46.338 122.865 46.7036 124.317 46.7036C125.343 46.7036 126.257 46.536 127.059 46.2009C127.871 45.8658 128.567 45.3733 129.145 44.7235C129.724 44.0634 130.171 43.2511 130.486 42.2864L130.532 42.1493H133.304L133.273 42.3017C132.999 43.703 132.446 44.9266 131.613 45.9725C130.78 47.0082 129.739 47.8104 128.491 48.379C127.242 48.9477 125.85 49.232 124.317 49.232ZM142.9 48.8665L134.796 26.8873H137.675L144.225 45.5764H144.286L150.835 26.8873H153.714L145.611 48.8665H142.9ZM154.552 49.0797C154.064 49.0797 153.653 48.9121 153.318 48.5771C152.983 48.242 152.815 47.8307 152.815 47.3433C152.815 46.8559 152.983 46.4446 153.318 46.1095C153.653 45.7744 154.064 45.6069 154.552 45.6069C155.039 45.6069 155.45 45.7744 155.785 46.1095C156.121 46.4446 156.288 46.8559 156.288 47.3433C156.288 47.8307 156.121 48.242 155.785 48.5771C155.45 48.9121 155.039 49.0797 154.552 49.0797ZM166.28 41.0222V38.5851H172.038C173.611 38.5851 174.83 38.179 175.693 37.3666C176.556 36.5441 176.988 35.4119 176.988 33.97V33.9395C176.988 32.4874 176.556 31.3552 175.693 30.5429C174.83 29.7305 173.611 29.3244 172.038 29.3244H166.28V26.8873H172.738C174.119 26.8873 175.338 27.1818 176.394 27.7707C177.45 28.3597 178.277 29.1822 178.877 30.2383C179.486 31.2943 179.79 32.5179 179.79 33.9091V33.9395C179.79 35.3307 179.486 36.5594 178.877 37.6256C178.277 38.6918 177.45 39.5244 176.394 40.1235C175.338 40.7226 174.119 41.0222 172.738 41.0222H166.28ZM164.909 48.8665V26.8873H167.651V48.8665H164.909ZM182.532 48.8665V33.0256H185.182V35.7064H185.243C185.507 34.7925 185.964 34.0665 186.614 33.5283C187.264 32.9901 188.036 32.721 188.929 32.721C189.163 32.721 189.371 32.7362 189.554 32.7667C189.747 32.787 189.894 32.8073 189.996 32.8276V35.4018C189.894 35.3611 189.711 35.3256 189.447 35.2951C189.193 35.2647 188.904 35.2494 188.579 35.2494C187.899 35.2494 187.3 35.4018 186.782 35.7064C186.274 36.011 185.878 36.4527 185.594 37.0315C185.319 37.6002 185.182 38.2856 185.182 39.0878V48.8665H182.532ZM192.326 48.8665V33.0256H194.976V48.8665H192.326ZM193.651 30.3449C193.194 30.3449 192.803 30.1824 192.478 29.8575C192.153 29.5325 191.991 29.1416 191.991 28.6846C191.991 28.2175 192.153 27.8266 192.478 27.5118C192.803 27.1869 193.194 27.0244 193.651 27.0244C194.118 27.0244 194.509 27.1869 194.824 27.5118C195.149 27.8266 195.311 28.2175 195.311 28.6846C195.311 29.1416 195.149 29.5325 194.824 29.8575C194.509 30.1824 194.118 30.3449 193.651 30.3449ZM198.586 48.8665V33.0256H201.236V35.3408H201.297C201.653 34.5589 202.211 33.9294 202.973 33.4521C203.734 32.9647 204.623 32.721 205.638 32.721C206.359 32.721 207.009 32.8428 207.588 33.0866C208.177 33.3201 208.685 33.6654 209.111 34.1223C209.538 34.5691 209.863 35.1174 210.086 35.7673H210.147C210.441 35.1276 210.832 34.5843 211.32 34.1375C211.817 33.6806 212.386 33.3303 213.026 33.0866C213.676 32.8428 214.371 32.721 215.112 32.721C216.158 32.721 217.067 32.9393 217.839 33.376C218.611 33.8024 219.21 34.4066 219.636 35.1885C220.063 35.9602 220.276 36.8741 220.276 37.9302V48.8665H217.626V38.5395C217.626 37.8083 217.494 37.1838 217.23 36.666C216.976 36.1481 216.605 35.7521 216.118 35.4779C215.63 35.2037 215.036 35.0667 214.336 35.0667C213.635 35.0667 213.016 35.2291 212.477 35.5541C211.939 35.8689 211.518 36.3106 211.213 36.8792C210.909 37.4377 210.756 38.0774 210.756 38.7984V48.8665H208.106V38.2501C208.106 37.6103 207.969 37.0518 207.695 36.5746C207.431 36.0973 207.055 35.7267 206.568 35.4627C206.09 35.1987 205.522 35.0667 204.862 35.0667C204.161 35.0667 203.536 35.2393 202.988 35.5845C202.45 35.9196 202.023 36.3766 201.709 36.9554C201.394 37.5342 201.236 38.1942 201.236 38.9355V48.8665H198.586ZM228.288 49.1711C227.242 49.1711 226.323 48.9731 225.531 48.5771C224.739 48.181 224.119 47.6225 223.673 46.9016C223.236 46.1806 223.018 45.3429 223.018 44.3884V44.3579C223.018 43.4542 223.241 42.6723 223.688 42.0123C224.145 41.3522 224.8 40.8293 225.653 40.4434C226.516 40.0575 227.552 39.8291 228.76 39.758L234.624 39.4229V41.4791L229.065 41.8142C228.008 41.8752 227.186 42.129 226.597 42.5758C226.018 43.0226 225.729 43.6166 225.729 44.3579V44.3884C225.729 45.15 226.013 45.7541 226.582 46.2009C227.161 46.6477 227.927 46.8711 228.882 46.8711C229.714 46.8711 230.461 46.6985 231.121 46.3532C231.791 45.9978 232.319 45.5155 232.705 44.9062C233.101 44.297 233.299 43.6116 233.299 42.85V38.1739C233.299 37.2092 232.994 36.4527 232.385 35.9044C231.786 35.3459 230.933 35.0667 229.826 35.0667C228.811 35.0667 227.988 35.2901 227.359 35.7368C226.739 36.1735 226.353 36.7472 226.201 37.458L226.171 37.5951H223.612L223.627 37.4276C223.708 36.5543 224.003 35.7622 224.51 35.0514C225.028 34.3406 225.739 33.7771 226.643 33.3607C227.546 32.9342 228.618 32.721 229.857 32.721C231.106 32.721 232.182 32.9342 233.086 33.3607C234 33.7872 234.705 34.3914 235.203 35.1733C235.7 35.945 235.949 36.8589 235.949 37.915V48.8665H233.299V46.2923H233.238C232.933 46.8711 232.527 47.3788 232.019 47.8155C231.512 48.242 230.938 48.5771 230.298 48.8208C229.669 49.0543 228.999 49.1711 228.288 49.1711ZM244.372 48.8665L252.552 26.8873H254.577V30.1773H253.877L247.251 48.8665H244.372ZM248.119 42.5758L249.033 40.2454H258.781L259.695 42.5758H248.119ZM260.548 48.8665L253.938 30.1773V26.8873H255.263L263.427 48.8665H260.548ZM265.544 48.8665V33.0256H268.194V35.3408H268.255C268.611 34.5589 269.169 33.9294 269.931 33.4521C270.692 32.9647 271.581 32.721 272.596 32.721C273.317 32.721 273.967 32.8428 274.546 33.0866C275.135 33.3201 275.643 33.6654 276.069 34.1223C276.496 34.5691 276.821 35.1174 277.044 35.7673H277.105C277.399 35.1276 277.79 34.5843 278.278 34.1375C278.775 33.6806 279.344 33.3303 279.984 33.0866C280.634 32.8428 281.329 32.721 282.07 32.721C283.116 32.721 284.025 32.9393 284.797 33.376C285.569 33.8024 286.168 34.4066 286.594 35.1885C287.021 35.9602 287.234 36.8741 287.234 37.9302V48.8665H284.584V38.5395C284.584 37.8083 284.452 37.1838 284.188 36.666C283.934 36.1481 283.563 35.7521 283.076 35.4779C282.588 35.2037 281.994 35.0667 281.294 35.0667C280.593 35.0667 279.973 35.2291 279.435 35.5541C278.897 35.8689 278.476 36.3106 278.171 36.8792C277.866 37.4377 277.714 38.0774 277.714 38.7984V48.8665H275.064V38.2501C275.064 37.6103 274.927 37.0518 274.653 36.5746C274.389 36.0973 274.013 35.7267 273.525 35.4627C273.048 35.1987 272.48 35.0667 271.82 35.0667C271.119 35.0667 270.494 35.2393 269.946 35.5845C269.408 35.9196 268.981 36.3766 268.667 36.9554C268.352 37.5342 268.194 38.1942 268.194 38.9355V48.8665H265.544ZM295.246 49.1711C294.2 49.1711 293.281 48.9731 292.489 48.5771C291.697 48.181 291.077 47.6225 290.631 46.9016C290.194 46.1806 289.976 45.3429 289.976 44.3884V44.3579C289.976 43.4542 290.199 42.6723 290.646 42.0123C291.103 41.3522 291.758 40.8293 292.611 40.4434C293.474 40.0575 294.509 39.8291 295.718 39.758L301.582 39.4229V41.4791L296.022 41.8142C294.966 41.8752 294.144 42.129 293.555 42.5758C292.976 43.0226 292.687 43.6166 292.687 44.3579V44.3884C292.687 45.15 292.971 45.7541 293.54 46.2009C294.119 46.6477 294.885 46.8711 295.84 46.8711C296.672 46.8711 297.419 46.6985 298.079 46.3532C298.749 45.9978 299.277 45.5155 299.663 44.9062C300.059 44.297 300.257 43.6116 300.257 42.85V38.1739C300.257 37.2092 299.952 36.4527 299.343 35.9044C298.744 35.3459 297.891 35.0667 296.784 35.0667C295.769 35.0667 294.946 35.2901 294.317 35.7368C293.697 36.1735 293.311 36.7472 293.159 37.458L293.128 37.5951H290.57L290.585 37.4276C290.666 36.5543 290.961 35.7622 291.468 35.0514C291.986 34.3406 292.697 33.7771 293.601 33.3607C294.504 32.9342 295.576 32.721 296.815 32.721C298.064 32.721 299.14 32.9342 300.044 33.3607C300.958 33.7872 301.663 34.3914 302.161 35.1733C302.658 35.945 302.907 36.8589 302.907 37.915V48.8665H300.257V46.2923H300.196C299.891 46.8711 299.485 47.3788 298.977 47.8155C298.47 48.242 297.896 48.5771 297.256 48.8208C296.627 49.0543 295.956 49.1711 295.246 49.1711ZM306.273 48.8665V33.0256H308.924V35.2799H308.985C309.411 34.5386 310.03 33.9294 310.843 33.4521C311.655 32.9647 312.66 32.721 313.859 32.721C315.595 32.721 316.94 33.249 317.895 34.3051C318.86 35.351 319.342 36.7777 319.342 38.5851V48.8665H316.692V39.0573C316.692 37.7677 316.387 36.7827 315.778 36.1024C315.179 35.4119 314.27 35.0667 313.051 35.0667C312.219 35.0667 311.493 35.2545 310.873 35.6302C310.254 35.9958 309.772 36.5137 309.426 37.1838C309.091 37.854 308.924 38.641 308.924 39.5447V48.8665H306.273ZM327.354 49.1711C326.308 49.1711 325.389 48.9731 324.597 48.5771C323.805 48.181 323.185 47.6225 322.739 46.9016C322.302 46.1806 322.084 45.3429 322.084 44.3884V44.3579C322.084 43.4542 322.307 42.6723 322.754 42.0123C323.211 41.3522 323.866 40.8293 324.719 40.4434C325.582 40.0575 326.618 39.8291 327.826 39.758L333.69 39.4229V41.4791L328.131 41.8142C327.075 41.8752 326.252 42.129 325.663 42.5758C325.084 43.0226 324.795 43.6166 324.795 44.3579V44.3884C324.795 45.15 325.079 45.7541 325.648 46.2009C326.227 46.6477 326.993 46.8711 327.948 46.8711C328.78 46.8711 329.527 46.6985 330.187 46.3532C330.857 45.9978 331.385 45.5155 331.771 44.9062C332.167 44.297 332.365 43.6116 332.365 42.85V38.1739C332.365 37.2092 332.06 36.4527 331.451 35.9044C330.852 35.3459 329.999 35.0667 328.892 35.0667C327.877 35.0667 327.054 35.2901 326.425 35.7368C325.805 36.1735 325.419 36.7472 325.267 37.458L325.237 37.5951H322.678L322.693 37.4276C322.774 36.5543 323.069 35.7622 323.576 35.0514C324.094 34.3406 324.805 33.7771 325.709 33.3607C326.613 32.9342 327.684 32.721 328.923 32.721C330.172 32.721 331.248 32.9342 332.152 33.3607C333.066 33.7872 333.771 34.3914 334.269 35.1733C334.767 35.945 335.015 36.8589 335.015 37.915V48.8665H332.365V46.2923H332.304C331.999 46.8711 331.593 47.3788 331.086 47.8155C330.578 48.242 330.004 48.5771 329.364 48.8208C328.735 49.0543 328.065 49.1711 327.354 49.1711ZM338.519 48.8665V26.8873H341.169V35.5541H341.23C341.656 34.6605 342.291 33.9649 343.134 33.4673C343.977 32.9698 344.987 32.721 346.165 32.721C347.292 32.721 348.277 32.9952 349.12 33.5435C349.973 34.0817 350.638 34.8331 351.115 35.7978C351.592 36.7624 351.831 37.8845 351.831 39.1639V48.8665H349.181V39.6209C349.181 38.1891 348.835 37.0721 348.145 36.27C347.454 35.4678 346.49 35.0667 345.251 35.0667C344.439 35.0667 343.723 35.2596 343.103 35.6455C342.494 36.0313 342.017 36.5644 341.671 37.2448C341.336 37.9251 341.169 38.7172 341.169 39.6209V48.8665H338.519Z" fill="white"/>
</svg>
