<svg width="212" height="44" viewBox="0 0 212 44" fill="none" xmlns="http://www.w3.org/2000/svg">
<path d="M35.0432 0C26.4367 0 18.9853 4.95293 15.3845 12.1634H20.2882C23.46 7.39159 28.8842 4.24788 35.0432 4.24788C44.8243 4.24788 52.7521 12.1775 52.7521 21.9568C52.7521 31.736 44.8243 39.6674 35.0432 39.6674C28.8842 39.6674 23.46 36.5237 20.2882 31.7518H15.3845C18.9853 38.9623 26.4367 43.9153 35.0432 43.9153C47.1697 43.9153 57 34.085 57 21.9568C57 9.8285 47.1697 0 35.0432 0Z" fill="#000063"/>
<path d="M49.633 29.2305H46.3627L41.4748 19.3405L39.9012 22.5229L38.4524 25.4539L36.5852 29.2305H33.3149L35.1821 25.4539L36.6309 22.5229L38.8744 17.9849L39.8397 16.0333L40.3249 15.0522H42.6229L43.1082 16.0333L44.0735 17.9849L49.633 29.2305Z" fill="#000063"/>
<path d="M35.5936 20.253C35.5936 21.0671 35.4072 21.8372 35.0731 22.5229C34.2309 24.2583 32.4516 25.4539 30.3927 25.4539H25.0459V29.2305H22.1132V22.5229H30.3927C31.6446 22.5229 32.6608 21.5066 32.6608 20.253C32.6608 18.9994 31.6446 17.9849 30.3927 17.9849H22.1132V15.0522H30.3927C32.4516 15.0522 34.2309 16.2495 35.0731 17.9849C35.4072 18.6706 35.5936 19.439 35.5936 20.253Z" fill="#000063"/>
<path d="M17.3344 21.9568C17.3344 22.7743 17.3889 23.5778 17.4979 24.3655H9.49092L5.30282 19.5497H17.4979C17.3889 20.3374 17.3344 21.1409 17.3344 21.9568Z" fill="#054AFF"/>
<path d="M19.5075 13.4487C18.6917 14.9361 18.0816 16.5555 17.7212 18.2645H4.18634L0 13.4487H19.5075Z" fill="#02DEA8"/>
<path d="M19.5075 30.4666H14.7937L10.6074 25.6508H17.7212C18.0834 27.3615 18.6917 28.9791 19.5075 30.4666Z" fill="#CC0003"/>
<path d="M78.9766 27.7233C77.9557 27.7233 77.0729 27.4837 76.3281 27.0045C75.5833 26.5253 75.0078 25.8457 74.6016 24.9655C74.2005 24.0852 74 23.041 74 21.8326V21.817C74 20.6035 74.2005 19.5566 74.6016 18.6764C75.0078 17.7962 75.5807 17.1165 76.3203 16.6373C77.0651 16.1582 77.9479 15.9186 78.9688 15.9186C79.7604 15.9186 80.4792 16.0748 81.125 16.3873C81.776 16.6946 82.3125 17.1243 82.7344 17.6764C83.1562 18.2233 83.4219 18.8561 83.5312 19.5748L83.5234 19.5905H82.1094L82.1016 19.5748C81.9766 19.0905 81.7656 18.6738 81.4688 18.3248C81.1719 17.9707 80.8099 17.6972 80.3828 17.5045C79.9609 17.3118 79.4896 17.2155 78.9688 17.2155C78.25 17.2155 77.625 17.403 77.0938 17.778C76.5677 18.153 76.1615 18.6842 75.875 19.3717C75.5885 20.0592 75.4453 20.8743 75.4453 21.817V21.8326C75.4453 22.7701 75.5885 23.5826 75.875 24.2701C76.1615 24.9576 76.5677 25.4889 77.0938 25.8639C77.625 26.2389 78.2526 26.4264 78.9766 26.4264C79.5026 26.4264 79.9792 26.3431 80.4062 26.1764C80.8333 26.0045 81.1927 25.7623 81.4844 25.4498C81.776 25.1321 81.9792 24.7571 82.0938 24.3248L82.1094 24.3092H83.5312V24.3248C83.4062 25.0123 83.1354 25.6113 82.7188 26.1217C82.3021 26.6269 81.7734 27.0201 81.1328 27.3014C80.4974 27.5826 79.7786 27.7233 78.9766 27.7233ZM89.1484 27.4576L84.9922 16.1842H86.4688L89.7812 25.6373H89.9062L93.2188 16.1842H94.6953L90.5391 27.4576H89.1484ZM96.0469 27.5358C95.7708 27.5358 95.5312 27.4368 95.3281 27.2389C95.1302 27.0358 95.0312 26.7962 95.0312 26.5201C95.0312 26.2389 95.1302 25.9993 95.3281 25.8014C95.5312 25.6035 95.7708 25.5045 96.0469 25.5045C96.3281 25.5045 96.5677 25.6035 96.7656 25.8014C96.9635 25.9993 97.0625 26.2389 97.0625 26.5201C97.0625 26.7962 96.9635 27.0358 96.7656 27.2389C96.5677 27.4368 96.3281 27.5358 96.0469 27.5358ZM105.062 23.4342V22.1842H108.25C109.057 22.1842 109.682 21.9759 110.125 21.5592C110.568 21.1373 110.789 20.5566 110.789 19.817V19.8014C110.789 19.0566 110.568 18.4759 110.125 18.0592C109.682 17.6425 109.057 17.4342 108.25 17.4342H105.062V16.1842H108.609C109.318 16.1842 109.943 16.3352 110.484 16.6373C111.026 16.9394 111.451 17.3613 111.758 17.903C112.07 18.4446 112.227 19.0722 112.227 19.7858V19.8014C112.227 20.5149 112.07 21.1451 111.758 21.692C111.451 22.2389 111.026 22.666 110.484 22.9733C109.943 23.2806 109.318 23.4342 108.609 23.4342H105.062ZM104.359 27.4576V16.1842H105.766V27.4576H104.359ZM114.359 27.4576V19.0358H115.719V20.2858H115.844C116.005 19.8431 116.279 19.4993 116.664 19.2545C117.049 19.0097 117.526 18.8873 118.094 18.8873C118.224 18.8873 118.352 18.8951 118.477 18.9108C118.607 18.9212 118.706 18.9316 118.773 18.942V20.2623C118.633 20.2363 118.495 20.2181 118.359 20.2076C118.229 20.192 118.089 20.1842 117.938 20.1842C117.505 20.1842 117.122 20.2701 116.789 20.442C116.456 20.6139 116.193 20.8535 116 21.1608C115.812 21.4681 115.719 21.8274 115.719 22.2389V27.4576H114.359ZM120.484 27.4576V19.0358H121.844V27.4576H120.484ZM121.172 17.4108C120.917 17.4108 120.695 17.3196 120.508 17.1373C120.326 16.9498 120.234 16.7285 120.234 16.4733C120.234 16.2128 120.326 15.9915 120.508 15.8092C120.695 15.6269 120.917 15.5358 121.172 15.5358C121.432 15.5358 121.654 15.6269 121.836 15.8092C122.018 15.9915 122.109 16.2128 122.109 16.4733C122.109 16.7285 122.018 16.9498 121.836 17.1373C121.654 17.3196 121.432 17.4108 121.172 17.4108ZM124.406 27.4576V19.0358H125.766V20.317H125.891C126.078 19.8639 126.365 19.5123 126.75 19.2623C127.141 19.0123 127.612 18.8873 128.164 18.8873C128.544 18.8873 128.885 18.9498 129.188 19.0748C129.49 19.1998 129.75 19.3743 129.969 19.5983C130.188 19.817 130.362 20.0722 130.492 20.3639H130.617C130.768 20.067 130.971 19.8092 131.227 19.5905C131.482 19.3665 131.776 19.1946 132.109 19.0748C132.448 18.9498 132.81 18.8873 133.195 18.8873C133.768 18.8873 134.253 18.9941 134.648 19.2076C135.049 19.4212 135.354 19.7337 135.562 20.1451C135.771 20.5514 135.875 21.0488 135.875 21.6373V27.4576H134.516V21.9498C134.516 21.5332 134.451 21.1894 134.32 20.9186C134.195 20.6425 134.003 20.4368 133.742 20.3014C133.482 20.1608 133.154 20.0905 132.758 20.0905C132.367 20.0905 132.026 20.179 131.734 20.3561C131.443 20.5332 131.216 20.7701 131.055 21.067C130.893 21.3587 130.812 21.6842 130.812 22.0436V27.4576H129.453V21.7389C129.453 21.4056 129.38 21.1165 129.234 20.8717C129.094 20.6217 128.891 20.429 128.625 20.2936C128.365 20.1582 128.057 20.0905 127.703 20.0905C127.339 20.0905 127.008 20.1868 126.711 20.3795C126.419 20.5722 126.188 20.8326 126.016 21.1608C125.849 21.4837 125.766 21.8431 125.766 22.2389V27.4576H124.406ZM140.641 27.6061C140.109 27.6061 139.63 27.5045 139.203 27.3014C138.781 27.0983 138.445 26.8092 138.195 26.4342C137.951 26.0592 137.828 25.6165 137.828 25.1061V25.0905C137.828 24.5905 137.948 24.1634 138.188 23.8092C138.427 23.4498 138.776 23.1686 139.234 22.9655C139.693 22.7623 140.247 22.6425 140.898 22.6061L143.992 22.4186V23.5045L141.062 23.692C140.422 23.7285 139.953 23.8613 139.656 24.0905C139.365 24.3196 139.219 24.6425 139.219 25.0592V25.0748C139.219 25.5019 139.38 25.8352 139.703 26.0748C140.026 26.3092 140.432 26.4264 140.922 26.4264C141.385 26.4264 141.797 26.3352 142.156 26.153C142.516 25.9655 142.797 25.7128 143 25.3951C143.208 25.0774 143.312 24.7181 143.312 24.317V21.692C143.312 21.1712 143.154 20.7753 142.836 20.5045C142.523 20.2285 142.052 20.0905 141.422 20.0905C140.917 20.0905 140.503 20.1816 140.18 20.3639C139.857 20.541 139.641 20.7936 139.531 21.1217L139.523 21.1451H138.164L138.172 21.0983C138.245 20.6556 138.427 20.2701 138.719 19.942C139.016 19.6087 139.398 19.3509 139.867 19.1686C140.336 18.9811 140.87 18.8873 141.469 18.8873C142.156 18.8873 142.737 18.9993 143.211 19.2233C143.69 19.4472 144.052 19.7701 144.297 20.192C144.547 20.6087 144.672 21.1087 144.672 21.692V27.4576H143.312V26.2155H143.188C143.01 26.5123 142.794 26.7649 142.539 26.9733C142.289 27.1816 142.005 27.3405 141.688 27.4498C141.37 27.554 141.021 27.6061 140.641 27.6061ZM150.93 27.4576L155.086 16.1842H156.164V18.0045H155.719L152.406 27.4576H150.93ZM152.812 24.2311L153.25 23.0358H158.344L158.781 24.2311H152.812ZM159.156 27.4576L155.844 18.0045V16.1842H156.477L160.633 27.4576H159.156ZM162.438 27.4576V19.0358H163.797V20.317H163.922C164.109 19.8639 164.396 19.5123 164.781 19.2623C165.172 19.0123 165.643 18.8873 166.195 18.8873C166.576 18.8873 166.917 18.9498 167.219 19.0748C167.521 19.1998 167.781 19.3743 168 19.5983C168.219 19.817 168.393 20.0722 168.523 20.3639H168.648C168.799 20.067 169.003 19.8092 169.258 19.5905C169.513 19.3665 169.807 19.1946 170.141 19.0748C170.479 18.9498 170.841 18.8873 171.227 18.8873C171.799 18.8873 172.284 18.9941 172.68 19.2076C173.081 19.4212 173.385 19.7337 173.594 20.1451C173.802 20.5514 173.906 21.0488 173.906 21.6373V27.4576H172.547V21.9498C172.547 21.5332 172.482 21.1894 172.352 20.9186C172.227 20.6425 172.034 20.4368 171.773 20.3014C171.513 20.1608 171.185 20.0905 170.789 20.0905C170.398 20.0905 170.057 20.179 169.766 20.3561C169.474 20.5332 169.247 20.7701 169.086 21.067C168.924 21.3587 168.844 21.6842 168.844 22.0436V27.4576H167.484V21.7389C167.484 21.4056 167.411 21.1165 167.266 20.8717C167.125 20.6217 166.922 20.429 166.656 20.2936C166.396 20.1582 166.089 20.0905 165.734 20.0905C165.37 20.0905 165.039 20.1868 164.742 20.3795C164.451 20.5722 164.219 20.8326 164.047 21.1608C163.88 21.4837 163.797 21.8431 163.797 22.2389V27.4576H162.438ZM178.672 27.6061C178.141 27.6061 177.661 27.5045 177.234 27.3014C176.812 27.0983 176.477 26.8092 176.227 26.4342C175.982 26.0592 175.859 25.6165 175.859 25.1061V25.0905C175.859 24.5905 175.979 24.1634 176.219 23.8092C176.458 23.4498 176.807 23.1686 177.266 22.9655C177.724 22.7623 178.279 22.6425 178.93 22.6061L182.023 22.4186V23.5045L179.094 23.692C178.453 23.7285 177.984 23.8613 177.688 24.0905C177.396 24.3196 177.25 24.6425 177.25 25.0592V25.0748C177.25 25.5019 177.411 25.8352 177.734 26.0748C178.057 26.3092 178.464 26.4264 178.953 26.4264C179.417 26.4264 179.828 26.3352 180.188 26.153C180.547 25.9655 180.828 25.7128 181.031 25.3951C181.24 25.0774 181.344 24.7181 181.344 24.317V21.692C181.344 21.1712 181.185 20.7753 180.867 20.5045C180.555 20.2285 180.083 20.0905 179.453 20.0905C178.948 20.0905 178.534 20.1816 178.211 20.3639C177.888 20.541 177.672 20.7936 177.562 21.1217L177.555 21.1451H176.195L176.203 21.0983C176.276 20.6556 176.458 20.2701 176.75 19.942C177.047 19.6087 177.43 19.3509 177.898 19.1686C178.367 18.9811 178.901 18.8873 179.5 18.8873C180.188 18.8873 180.768 18.9993 181.242 19.2233C181.721 19.4472 182.083 19.7701 182.328 20.192C182.578 20.6087 182.703 21.1087 182.703 21.692V27.4576H181.344V26.2155H181.219C181.042 26.5123 180.826 26.7649 180.57 26.9733C180.32 27.1816 180.036 27.3405 179.719 27.4498C179.401 27.554 179.052 27.6061 178.672 27.6061ZM185.188 27.4576V19.0358H186.547V20.3014H186.672C186.885 19.8535 187.193 19.5071 187.594 19.2623C187.995 19.0123 188.505 18.8873 189.125 18.8873C190.073 18.8873 190.799 19.1582 191.305 19.6998C191.815 20.2363 192.07 21.0045 192.07 22.0045V27.4576H190.711V22.3326C190.711 21.5722 190.549 21.0097 190.227 20.6451C189.909 20.2753 189.414 20.0905 188.742 20.0905C188.294 20.0905 187.906 20.1868 187.578 20.3795C187.25 20.5722 186.995 20.8457 186.812 21.1998C186.635 21.554 186.547 21.9785 186.547 22.4733V27.4576H185.188ZM196.844 27.6061C196.312 27.6061 195.833 27.5045 195.406 27.3014C194.984 27.0983 194.648 26.8092 194.398 26.4342C194.154 26.0592 194.031 25.6165 194.031 25.1061V25.0905C194.031 24.5905 194.151 24.1634 194.391 23.8092C194.63 23.4498 194.979 23.1686 195.438 22.9655C195.896 22.7623 196.451 22.6425 197.102 22.6061L200.195 22.4186V23.5045L197.266 23.692C196.625 23.7285 196.156 23.8613 195.859 24.0905C195.568 24.3196 195.422 24.6425 195.422 25.0592V25.0748C195.422 25.5019 195.583 25.8352 195.906 26.0748C196.229 26.3092 196.635 26.4264 197.125 26.4264C197.589 26.4264 198 26.3352 198.359 26.153C198.719 25.9655 199 25.7128 199.203 25.3951C199.411 25.0774 199.516 24.7181 199.516 24.317V21.692C199.516 21.1712 199.357 20.7753 199.039 20.5045C198.727 20.2285 198.255 20.0905 197.625 20.0905C197.12 20.0905 196.706 20.1816 196.383 20.3639C196.06 20.541 195.844 20.7936 195.734 21.1217L195.727 21.1451H194.367L194.375 21.0983C194.448 20.6556 194.63 20.2701 194.922 19.942C195.219 19.6087 195.602 19.3509 196.07 19.1686C196.539 18.9811 197.073 18.8873 197.672 18.8873C198.359 18.8873 198.94 18.9993 199.414 19.2233C199.893 19.4472 200.255 19.7701 200.5 20.192C200.75 20.6087 200.875 21.1087 200.875 21.692V27.4576H199.516V26.2155H199.391C199.214 26.5123 198.997 26.7649 198.742 26.9733C198.492 27.1816 198.208 27.3405 197.891 27.4498C197.573 27.554 197.224 27.6061 196.844 27.6061ZM203.438 27.4576V15.692H204.797V20.3014H204.922C205.135 19.8535 205.443 19.5071 205.844 19.2623C206.245 19.0123 206.755 18.8873 207.375 18.8873C208.005 18.8873 208.539 19.0097 208.977 19.2545C209.414 19.4941 209.747 19.8457 209.977 20.3092C210.206 20.7727 210.32 21.3378 210.32 22.0045V27.4576H208.961V22.3326C208.961 21.5722 208.799 21.0097 208.477 20.6451C208.159 20.2753 207.664 20.0905 206.992 20.0905C206.544 20.0905 206.156 20.1868 205.828 20.3795C205.5 20.5722 205.245 20.8457 205.062 21.1998C204.885 21.554 204.797 21.9785 204.797 22.4733V27.4576H203.438Z" fill="#303030"/>
</svg>
